<svg width="17" height="16" viewBox="0 0 17 16" fill="none" xmlns="http://www.w3.org/2000/svg">
<path fill-rule="evenodd" clip-rule="evenodd" d="M8.59812 1.33337C4.90857 1.33337 1.92593 4.38892 1.92593 8.16904C1.92593 11.1907 3.83701 13.7485 6.48819 14.6537C6.81965 14.7218 6.94107 14.5067 6.94107 14.3257C6.94107 14.1672 6.93014 13.624 6.93014 13.058C5.0741 13.4655 4.6876 12.2432 4.6876 12.2432C4.38932 11.451 3.94736 11.2474 3.94736 11.2474C3.33988 10.8286 3.99161 10.8286 3.99161 10.8286C4.66547 10.8739 5.01906 11.5303 5.01906 11.5303C5.61548 12.5714 6.57655 12.2772 6.96319 12.0961C7.01837 11.6547 7.19523 11.3492 7.38302 11.1794C5.90269 11.021 4.3452 10.4325 4.3452 7.80682C4.3452 7.05988 4.61016 6.44877 5.02999 5.97349C4.96375 5.80377 4.73171 5.10197 5.09636 4.16267C5.09636 4.16267 5.65973 3.98156 6.93 4.86433C7.47385 4.7147 8.03472 4.63858 8.59812 4.63794C9.16148 4.63794 9.73578 4.71725 10.2661 4.86433C11.5365 3.98156 12.0999 4.16267 12.0999 4.16267C12.4645 5.10197 12.2323 5.80377 12.1661 5.97349C12.597 6.44877 12.851 7.05988 12.851 7.80682C12.851 10.4325 11.2935 11.0096 9.80215 11.1794C10.0453 11.3944 10.255 11.8018 10.255 12.4469C10.255 13.3636 10.2441 14.0993 10.2441 14.3255C10.2441 14.5067 10.3657 14.7218 10.697 14.6539C13.3482 13.7483 15.2592 11.1907 15.2592 8.16904C15.2702 4.38892 12.2766 1.33337 8.59812 1.33337Z" fill="#B1B3B9"/>
</svg>
