<svg width="16" height="16" viewBox="0 0 16 16" fill="none" xmlns="http://www.w3.org/2000/svg">
<path d="M13.4801 1.46667H2.43003C2.17146 1.46667 1.92347 1.56939 1.74063 1.75223C1.5578 1.93507 1.45508 2.18305 1.45508 2.44163V13.4917C1.45508 13.7503 1.5578 13.9983 1.74063 14.1811C1.92347 14.364 2.17146 14.4667 2.43003 14.4667H13.4801C13.7387 14.4667 13.9867 14.364 14.1695 14.1811C14.3524 13.9983 14.4551 13.7503 14.4551 13.4917V2.44163C14.4551 2.18305 14.3524 1.93507 14.1695 1.75223C13.9867 1.56939 13.7387 1.46667 13.4801 1.46667ZM5.35488 12.5168H3.40498V6.66706H5.35488V12.5168ZM4.37993 5.5293C4.15638 5.52297 3.93965 5.45091 3.75683 5.32211C3.574 5.1933 3.43319 5.01348 3.35199 4.8051C3.27079 4.59673 3.25279 4.36904 3.30026 4.15049C3.34773 3.93195 3.45855 3.73224 3.61888 3.57632C3.7792 3.42041 3.98192 3.31519 4.20171 3.27384C4.42149 3.23248 4.64859 3.25681 4.85462 3.34379C5.06065 3.43078 5.23648 3.57655 5.36013 3.76289C5.48379 3.94923 5.54978 4.16789 5.54987 4.39153C5.54474 4.69727 5.41881 4.98855 5.19959 5.20174C4.98038 5.41493 4.6857 5.53269 4.37993 5.5293ZM12.5052 12.5168H10.5553V9.43593C10.5553 8.51265 10.1653 8.18116 9.65832 8.18116C9.50968 8.19106 9.36446 8.23022 9.23099 8.29641C9.09753 8.36259 8.97846 8.45449 8.88062 8.56683C8.78278 8.67916 8.7081 8.80972 8.66086 8.951C8.61363 9.09229 8.59477 9.24151 8.60537 9.3901C8.60184 9.42022 8.60184 9.45065 8.60537 9.48077V12.5168H6.65547V6.66706H8.54005V7.51137C8.72999 7.22197 8.99118 6.9863 9.29852 6.827C9.60585 6.6677 9.94899 6.59013 10.295 6.60174C11.3021 6.60174 12.4789 7.16039 12.4789 8.98062L12.5052 12.5168Z" fill="#B1B3B9"/>
</svg>
