<svg width="17" height="16" viewBox="0 0 17 16" fill="none" xmlns="http://www.w3.org/2000/svg">
<path fill-rule="evenodd" clip-rule="evenodd" d="M4.03247 3.41874C4.63152 2.81301 5.34439 2.33167 6.1301 2.00239C6.91581 1.6731 7.75887 1.50238 8.61079 1.50002C9.46271 1.49767 10.3067 1.66374 11.0942 1.98867C11.8817 2.31361 12.5973 2.79101 13.1996 3.39341C13.802 3.99582 14.2794 4.71136 14.6043 5.49888C14.9292 6.2864 15.0952 7.13038 15.0927 7.98228C15.0903 8.83418 14.9195 9.6772 14.5902 10.4629C14.2609 11.2485 13.7794 11.9614 13.1737 12.5603C12.5757 13.1705 11.8626 13.6561 11.0758 13.989C10.2889 14.322 9.44391 14.4956 8.58955 14.4999C7.73518 14.5042 6.88844 14.3391 6.09827 14.0142C5.30811 13.6892 4.59021 13.2109 3.98607 12.6067C3.38194 12.0026 2.90356 11.2847 2.5786 10.4946C2.25364 9.70445 2.08854 8.85773 2.09286 8.00339C2.09717 7.14904 2.27081 6.30403 2.60374 5.51721C2.93666 4.73039 3.42227 4.01672 4.03247 3.41874ZM8.83451 6.29808C8.20613 6.55925 6.94938 7.10033 5.0649 7.92134C4.75847 8.04352 4.59814 8.16247 4.58392 8.27883C4.55871 8.47536 4.80502 8.55293 5.13989 8.65831L5.28212 8.70356C5.61182 8.81087 6.0566 8.93629 6.28674 8.94146C6.49685 8.94598 6.73022 8.85936 6.98817 8.68287C8.74982 7.49338 9.65812 6.89282 9.71501 6.87989C9.75574 6.87084 9.81134 6.85921 9.84883 6.89282C9.88697 6.92644 9.88309 6.98979 9.87857 7.00724C9.8553 7.11068 8.8914 8.00667 8.39038 8.47277C8.23264 8.61952 8.1208 8.7236 8.09817 8.74687C8.04828 8.79805 7.99741 8.84826 7.9456 8.8975C7.63917 9.19293 7.40903 9.41467 7.95853 9.77668C8.22488 9.95188 8.43757 10.0967 8.65026 10.2421C8.87847 10.3973 9.10667 10.5524 9.40082 10.7464C9.47711 10.7955 9.54951 10.8472 9.61933 10.897C9.88762 11.0884 10.1281 11.259 10.4255 11.2319C10.5981 11.2164 10.7765 11.0541 10.867 10.5692C11.0804 9.42501 11.5019 6.94389 11.5988 5.92119C11.6051 5.83641 11.6018 5.75119 11.5891 5.66713C11.5809 5.59968 11.5483 5.53759 11.4973 5.49259C11.4198 5.42923 11.3002 5.4163 11.2465 5.41695C11.0034 5.42148 10.6304 5.55077 8.83451 6.29808Z" fill="#B1B3B9"/>
</svg>
